<mxfile host="app.diagrams.net" agent="Mozilla/5.0 (Windows NT 10.0; Win64; x64) AppleWebKit/537.36 (KHTML, like Gecko) Chrome/136.0.0.0 Safari/537.36" version="27.0.3">
  <diagram name="Page-1" id="mH350tMixbXHAdXvrKmR">
    <mxGraphModel dx="1042" dy="570" grid="1" gridSize="10" guides="1" tooltips="1" connect="1" arrows="1" fold="1" page="1" pageScale="1" pageWidth="850" pageHeight="1100" math="0" shadow="0">
      <root>
        <mxCell id="0" />
        <mxCell id="1" parent="0" />
        <mxCell id="t8GsQe1oL2_bsVpJADke-17" style="edgeStyle=orthogonalEdgeStyle;rounded=0;orthogonalLoop=1;jettySize=auto;html=1;entryX=0;entryY=0.5;entryDx=0;entryDy=0;" edge="1" parent="1" source="t8GsQe1oL2_bsVpJADke-1" target="t8GsQe1oL2_bsVpJADke-2">
          <mxGeometry relative="1" as="geometry" />
        </mxCell>
        <mxCell id="t8GsQe1oL2_bsVpJADke-1" value="شروع" style="ellipse;whiteSpace=wrap;html=1;aspect=fixed;shadow=0;" vertex="1" parent="1">
          <mxGeometry x="30" y="182.5" width="55" height="55" as="geometry" />
        </mxCell>
        <mxCell id="t8GsQe1oL2_bsVpJADke-8" value="" style="edgeStyle=orthogonalEdgeStyle;rounded=0;orthogonalLoop=1;jettySize=auto;html=1;" edge="1" parent="1" source="t8GsQe1oL2_bsVpJADke-2" target="t8GsQe1oL2_bsVpJADke-3">
          <mxGeometry relative="1" as="geometry" />
        </mxCell>
        <mxCell id="t8GsQe1oL2_bsVpJADke-2" value="ثبت اطلاعات سرنخ" style="rounded=1;whiteSpace=wrap;html=1;" vertex="1" parent="1">
          <mxGeometry x="170" y="180" width="120" height="60" as="geometry" />
        </mxCell>
        <mxCell id="t8GsQe1oL2_bsVpJADke-10" style="edgeStyle=orthogonalEdgeStyle;rounded=0;orthogonalLoop=1;jettySize=auto;html=1;entryX=0;entryY=0.5;entryDx=0;entryDy=0;" edge="1" parent="1" source="t8GsQe1oL2_bsVpJADke-3" target="t8GsQe1oL2_bsVpJADke-4">
          <mxGeometry relative="1" as="geometry" />
        </mxCell>
        <mxCell id="t8GsQe1oL2_bsVpJADke-3" value="بررسی اولیه" style="rounded=1;whiteSpace=wrap;html=1;" vertex="1" parent="1">
          <mxGeometry x="330" y="180" width="120" height="60" as="geometry" />
        </mxCell>
        <mxCell id="t8GsQe1oL2_bsVpJADke-11" style="edgeStyle=orthogonalEdgeStyle;rounded=0;orthogonalLoop=1;jettySize=auto;html=1;entryX=0.5;entryY=0;entryDx=0;entryDy=0;" edge="1" parent="1" source="t8GsQe1oL2_bsVpJADke-4" target="t8GsQe1oL2_bsVpJADke-5">
          <mxGeometry relative="1" as="geometry" />
        </mxCell>
        <mxCell id="t8GsQe1oL2_bsVpJADke-19" value="بله" style="edgeLabel;html=1;align=center;verticalAlign=middle;resizable=0;points=[];" vertex="1" connectable="0" parent="t8GsQe1oL2_bsVpJADke-11">
          <mxGeometry x="-0.0743" y="-3" relative="1" as="geometry">
            <mxPoint as="offset" />
          </mxGeometry>
        </mxCell>
        <mxCell id="t8GsQe1oL2_bsVpJADke-12" style="edgeStyle=orthogonalEdgeStyle;rounded=0;orthogonalLoop=1;jettySize=auto;html=1;entryX=0;entryY=0.5;entryDx=0;entryDy=0;" edge="1" parent="1" source="t8GsQe1oL2_bsVpJADke-4" target="t8GsQe1oL2_bsVpJADke-6">
          <mxGeometry relative="1" as="geometry" />
        </mxCell>
        <mxCell id="t8GsQe1oL2_bsVpJADke-20" value="خیر" style="edgeLabel;html=1;align=center;verticalAlign=middle;resizable=0;points=[];" vertex="1" connectable="0" parent="t8GsQe1oL2_bsVpJADke-12">
          <mxGeometry x="-0.664" y="3" relative="1" as="geometry">
            <mxPoint as="offset" />
          </mxGeometry>
        </mxCell>
        <mxCell id="t8GsQe1oL2_bsVpJADke-4" value="آیا مشتری علاقه مند است" style="rhombus;whiteSpace=wrap;html=1;" vertex="1" parent="1">
          <mxGeometry x="480" y="170" width="80" height="80" as="geometry" />
        </mxCell>
        <mxCell id="t8GsQe1oL2_bsVpJADke-5" value="تبدیلی به فروش" style="rounded=1;whiteSpace=wrap;html=1;" vertex="1" parent="1">
          <mxGeometry x="460" y="320" width="120" height="60" as="geometry" />
        </mxCell>
        <mxCell id="t8GsQe1oL2_bsVpJADke-13" style="edgeStyle=orthogonalEdgeStyle;rounded=0;orthogonalLoop=1;jettySize=auto;html=1;entryX=0;entryY=0.5;entryDx=0;entryDy=0;" edge="1" parent="1" source="t8GsQe1oL2_bsVpJADke-6" target="t8GsQe1oL2_bsVpJADke-7">
          <mxGeometry relative="1" as="geometry" />
        </mxCell>
        <mxCell id="t8GsQe1oL2_bsVpJADke-6" value="تماس با سر نخ" style="rounded=1;whiteSpace=wrap;html=1;" vertex="1" parent="1">
          <mxGeometry x="590" y="180" width="120" height="60" as="geometry" />
        </mxCell>
        <mxCell id="t8GsQe1oL2_bsVpJADke-7" value="پایان" style="ellipse;whiteSpace=wrap;html=1;aspect=fixed;" vertex="1" parent="1">
          <mxGeometry x="760" y="185" width="50" height="50" as="geometry" />
        </mxCell>
        <mxCell id="t8GsQe1oL2_bsVpJADke-14" value="&lt;br&gt;&lt;div&gt;&lt;br&gt;&lt;/div&gt;" style="text;strokeColor=none;align=center;fillColor=none;html=1;verticalAlign=middle;whiteSpace=wrap;rounded=0;" vertex="1" parent="1">
          <mxGeometry x="90" y="100" width="60" height="30" as="geometry" />
        </mxCell>
      </root>
    </mxGraphModel>
  </diagram>
</mxfile>
